<?xml version="1.0" encoding="UTF-8"?>
<svg width="600px" height="200px" viewBox="0 0 600 200" version="1.1" xmlns="http://www.w3.org/2000/svg" xmlns:xlink="http://www.w3.org/1999/xlink">
    <!-- Generator: Sketch 57.1 (83088) - https://sketch.com -->
    <title>Artboard</title>
    <desc>Created with Sketch.</desc>
    <g id="Artboard" stroke="none" stroke-width="1" fill="none" fill-rule="evenodd">
        <rect fill="#000000" x="0" y="0" width="600" height="200"></rect>
        <g id="Group" transform="translate(69.000000, 64.000000)" fill="#FFFFFF">
            <path d="M48.75,0 C57.7246272,0 65,6.94730561 65,15.5172414 L65,31.0344828 L54.1666667,31.0344828 L54.1666667,20.6896552 C54.1666667,19.4534249 53.9395808,18.2678418 53.523069,17.1688675 L19.792979,61.5010114 C20.3446141,61.5928559 20.9105842,61.6448542 21.4875177,61.6537865 L21.6666667,61.6551724 L43.3333333,61.6551724 C49.2565873,61.6551724 54.0695484,57.1158029 54.1652153,51.4814155 L54.1666667,51.3103448 L54.1666667,46.137931 L65,46.137931 L65,56.4827586 C65,65.0526944 57.7246272,72 48.75,72 L16.25,72 C7.27537282,72 0,65.0526944 0,56.4827586 L0,40.9655172 L10.8333333,40.9655172 L10.8333333,51.3103448 C10.8333333,52.5465751 11.0604192,53.7321582 11.476931,54.8311325 L45.207021,10.4989886 C44.6553859,10.4071441 44.0894158,10.3551458 43.5124823,10.3462135 L43.3333333,10.3448276 L21.6666667,10.3448276 C15.7434127,10.3448276 10.9304516,14.8841971 10.8347847,20.5185845 L10.8333333,20.6896552 L10.8333333,25.862069 L0,25.862069 L0,15.5172414 C0,6.94730561 7.27537282,0 16.25,0 L48.75,0 Z" id="Path"></path>
            <path d="M111.044435,55 L111.044435,50.2352142 L129.924761,23.6202545 L111,23.6202545 L111,17 L139.955565,17 L139.955565,21.7647858 L121.075239,48.3797455 L140,48.3797455 L140,55 L111.044435,55 Z M154,55 L154,17 L179.924855,17 L179.924855,23.6202545 L162.130669,23.6202545 L162.130669,32.674942 L178.587502,32.674942 L178.587502,39.2951965 L162.130669,39.2951965 L162.130669,48.3797455 L180,48.3797455 L180,55 L154,55 Z M203,35 L208.312286,35 C209.812965,35 211.057246,34.7992282 212.045164,34.3976785 C213.033083,33.9961289 213.772527,33.3939059 214.263517,32.5909917 C214.754508,31.7880774 215,30.7861613 215,29.5852132 C215,28.3772334 214.75333,27.3581545 214.259984,26.527946 C213.766637,25.6977375 213.02479,25.0688683 212.034421,24.6413197 C211.044052,24.2137711 209.793741,24 208.283449,24 L203,24 L203,35 L203,35 Z M203.141645,41.5365448 L203.141645,55 L195,55 L195,17 L210.18457,17 C213.104317,17 215.593756,17.5096207 217.652962,18.5288773 C219.712167,19.5481339 221.28479,20.9879439 222.370877,22.8483505 C223.456965,24.7087572 224,26.8957241 224,29.409317 C224,31.9377924 223.447559,34.1086691 222.34266,35.9220123 C221.237761,37.7353555 219.641281,39.1244306 217.553171,40.0892792 C215.465062,41.0541277 212.943732,41.5365448 209.989104,41.5365448 L203.141645,41.5365448 L203.141645,41.5365448 Z M215.616301,38 L225,55 L216.191778,55 L207,38 L215.616301,38 Z M272,36.5 C272,40.6372444 271.208091,44.1584448 269.624249,47.0637068 C268.040406,49.9689688 265.889912,52.1846407 263.172702,53.710789 C260.455491,55.2369373 257.397955,56 254,56 C250.587189,56 247.524081,55.2332204 244.810585,53.6996383 C242.097089,52.1660562 239.950308,49.9466675 238.37018,47.0414055 C236.790052,44.1361435 236,40.6223768 236,36.5 C236,32.3627556 236.790052,28.8415552 238.37018,25.9362932 C239.950308,23.0310312 242.097089,20.8153593 244.810585,19.289211 C247.524081,17.7630627 250.587189,17 254,17 C257.397955,17 260.455491,17.7630627 263.172702,19.289211 C265.889912,20.8153593 268.040406,23.0310312 269.624249,25.9362932 C271.208091,28.8415552 272,32.3627556 272,36.5 Z M264,36.5 C264,33.7987203 263.607174,31.519215 262.82151,29.661416 C262.035845,27.8036169 260.931155,26.3956142 259.507407,25.4373657 C258.083658,24.4791171 256.414492,24 254.499857,24 C252.585223,24 250.916057,24.4791171 249.492308,25.4373657 C248.068559,26.3956142 246.963917,27.8036169 246.178348,29.661416 C245.392779,31.519215 245,33.7987203 245,36.5 C245,39.2012797 245.392779,41.480785 246.178348,43.338584 C246.963917,45.1963831 248.068559,46.6043858 249.492308,47.5626343 C250.916057,48.5208829 252.585223,49 254.499857,49 C256.414492,49 258.083658,48.5208829 259.507407,47.5626343 C260.931155,46.6043858 262.035845,45.1963831 262.82151,43.338584 C263.607174,41.480785 264,39.2012797 264,36.5 Z M294,37 L299.312286,37 C300.817866,37 302.063371,36.7237743 303.04884,36.1713147 C304.034308,35.6188551 304.772527,34.8511482 305.263517,33.868171 C305.754508,32.8851938 306,31.7497813 306,30.4618995 C306,29.166477 305.754508,28.0342892 305.263517,27.065302 C304.772527,26.0963149 304.031858,25.3431931 303.041489,24.8059143 C302.05112,24.2686354 300.798453,24 299.283449,24 L294,24 L294,37 L294,37 Z M294.141645,42.6796875 L294.141645,55 L286,55 L286,17 L301.18457,17 C304.109216,17 306.59988,17.547986 308.656636,18.6439743 C310.713392,19.7399627 312.28479,21.2565033 313.370877,23.1936417 C314.456965,25.1307801 315,27.3560157 315,29.8694153 C315,32.3978907 314.448832,34.6256872 313.346481,36.5528717 C312.244129,38.4800562 310.648923,39.9829709 308.560814,41.0616608 C306.472704,42.1403506 303.948827,42.6796875 300.989104,42.6796875 L294.141645,42.6796875 L294.141645,42.6796875 Z M330.709178,55 L322,55 L335.259536,17 L345.740464,17 L359,55 L350.290822,55 L340.650163,25.6835937 L340.349837,25.6835937 L330.709178,55 Z M330,41 L350,41 L350,47 L330,47 L330,41 Z M365,23.6202545 L365,17 L396,17 L396,23.6202545 L384.443054,23.6202545 L384.443054,55 L376.556946,55 L376.556946,23.6202545 L365,23.6202545 Z M409,55 L409,17 L417.189464,17 L417.189464,32.674942 L433.810832,32.674942 L433.810832,17 L442,17 L442,55 L433.810832,55 L433.810832,39.2951965 L417.189464,39.2951965 L417.189464,55 L409,55 Z" id="ZEROPATH" fill-rule="nonzero"></path>
        </g>
    </g>
</svg>